<svg width="16" height="16" viewBox="0 0 16 16" fill="none" xmlns="http://www.w3.org/2000/svg">
<path d="M4.25 6.75H6.75" stroke="white" stroke-linecap="round" stroke-linejoin="round"/>
<path d="M13.5208 7.375H11.8942C10.7791 7.375 9.875 8.21444 9.875 9.25C9.875 10.2856 10.7791 11.125 11.8942 11.125H13.5208C13.5729 11.125 13.5989 11.125 13.6209 11.1237C13.958 11.1031 14.2264 10.8539 14.2486 10.5409C14.25 10.5204 14.25 10.4963 14.25 10.4479V8.05206C14.25 8.00375 14.25 7.97956 14.2486 7.95913C14.2264 7.64613 13.958 7.39688 13.6209 7.37631C13.5989 7.375 13.5729 7.375 13.5208 7.375Z" stroke="white"/>
<path d="M13.6031 7.375C13.5546 6.20481 13.3979 5.48734 12.8927 4.98223C12.1606 4.25 10.982 4.25 8.625 4.25H6.75C4.39298 4.25 3.21447 4.25 2.48223 4.98223C1.75 5.71447 1.75 6.893 1.75 9.25C1.75 11.607 1.75 12.7856 2.48223 13.5177C3.21447 14.25 4.39298 14.25 6.75 14.25H8.625C10.982 14.25 12.1606 14.25 12.8927 13.5177C13.3979 13.0127 13.5546 12.2952 13.6031 11.125" stroke="white"/>
<path d="M4.25 4.25L6.58468 2.70196C7.24212 2.26601 8.13288 2.26601 8.79031 2.70196L11.125 4.25" stroke="white" stroke-linecap="round"/>
<path d="M11.7445 9.25H11.7501" stroke="white" stroke-linecap="round" stroke-linejoin="round"/>
</svg>
