<svg width="16" height="16" viewBox="0 0 16 16" fill="none" xmlns="http://www.w3.org/2000/svg">
<path d="M1.75 8C1.75 5.05372 1.75 3.58058 2.66529 2.66529C3.58058 1.75 5.05372 1.75 8 1.75C10.9462 1.75 12.4194 1.75 13.3347 2.66529C14.25 3.58058 14.25 5.05372 14.25 8" stroke="white"/>
<path d="M1.75 9.25C1.75 7.49981 1.75 6.62476 2.09061 5.95628C2.39021 5.36827 2.86827 4.89021 3.45628 4.59061C4.12476 4.25 4.99984 4.25 6.75 4.25H9.25C11.0002 4.25 11.8752 4.25 12.5437 4.59061C13.1317 4.89021 13.6098 5.36827 13.9094 5.95628C14.25 6.62476 14.25 7.49981 14.25 9.25C14.25 11.0002 14.25 11.8752 13.9094 12.5437C13.6098 13.1317 13.1317 13.6098 12.5437 13.9094C11.8752 14.25 11.0002 14.25 9.25 14.25H6.75C4.99984 14.25 4.12476 14.25 3.45628 13.9094C2.86827 13.6098 2.39021 13.1317 2.09061 12.5437C1.75 11.8752 1.75 11.0002 1.75 9.25Z" stroke="white"/>
<path d="M6.4375 9.5L7.33038 10.5L9.5625 8" stroke="white" stroke-linecap="round" stroke-linejoin="round"/>
</svg>
