<svg width="16" height="16" viewBox="0 0 16 16" fill="none" xmlns="http://www.w3.org/2000/svg">
<path d="M5.5 4.25C5.5 4.91304 5.76339 5.54893 6.23223 6.01777C6.70107 6.48661 7.33696 6.75 8 6.75C8.66304 6.75 9.29893 6.48661 9.76777 6.01777C10.2366 5.54893 10.5 4.91304 10.5 4.25C10.5 3.58696 10.2366 2.95107 9.76777 2.48223C9.29893 2.01339 8.66304 1.75 8 1.75C7.33696 1.75 6.70107 2.01339 6.23223 2.48223C5.76339 2.95107 5.5 3.58696 5.5 4.25Z" stroke="white"/>
<path d="M9.25 10.5C9.25 11.163 9.51339 11.7989 9.98223 12.2678C10.4511 12.7366 11.087 13 11.75 13C12.413 13 13.0489 12.7366 13.5178 12.2678C13.9866 11.7989 14.25 11.163 14.25 10.5C14.25 9.83696 13.9866 9.20107 13.5178 8.73223C13.0489 8.26339 12.413 8 11.75 8C11.087 8 10.4511 8.26339 9.98223 8.73223C9.51339 9.20107 9.25 9.83696 9.25 10.5Z" stroke="white"/>
<path d="M10.9165 10.5001L11.4374 11.1251L12.5832 9.94458" stroke="white" stroke-linecap="round" stroke-linejoin="round"/>
<path d="M9.875 8.82944C9.296 8.69762 8.66306 8.625 8 8.625C5.23857 8.625 3 9.88419 3 11.4375C3 12.9908 3 14.25 8 14.25C11.5546 14.25 12.5822 13.6136 12.8792 12.6875" stroke="white"/>
</svg>
