<svg width="16" height="16" viewBox="0 0 16 16" fill="none" xmlns="http://www.w3.org/2000/svg">
<path d="M1.75 8C1.75 5.64298 1.75 4.46447 2.48223 3.73223C3.21447 3 4.39298 3 6.75 3H9.25C11.607 3 12.7856 3 13.5177 3.73223C14.25 4.46447 14.25 5.64298 14.25 8V9.25C14.25 11.607 14.25 12.7856 13.5177 13.5177C12.7856 14.25 11.607 14.25 9.25 14.25H6.75C4.39298 14.25 3.21447 14.25 2.48223 13.5177C1.75 12.7856 1.75 11.607 1.75 9.25V8Z" stroke="#F59E0B" stroke-width="1.3"/>
<path d="M11.75 10.5H10.5M10.5 10.5H9.25M10.5 10.5V9.25M10.5 10.5V11.75" stroke="#F59E0B" stroke-width="1.3" stroke-linecap="round"/>
<path d="M4.875 3V2.0625" stroke="#F59E0B" stroke-width="1.3" stroke-linecap="round"/>
<path d="M11.125 3V2.0625" stroke="#F59E0B" stroke-width="1.3" stroke-linecap="round"/>
<path d="M2.0625 6.125H13.9375" stroke="#F59E0B" stroke-width="1.3" stroke-linecap="round"/>
</svg>
