<svg width="20" height="20" viewBox="0 0 20 20" fill="none" xmlns="http://www.w3.org/2000/svg">
<g clip-path="url(#clip0_369_1553)">
<path d="M12.5581 9.5L4.65112 8V19.0835C4.65112 19.5897 5.03282 20 5.50368 20H19.1474C19.6183 20 20 19.5897 20 19.0835V15L12.5581 9.5Z" fill="#185C37"/>
<path d="M12.5581 0H5.50368C5.03282 0 4.65112 0.410329 4.65112 0.916498V5L12.5581 10L16.7441 11.5L20 10V5L12.5581 0Z" fill="#21A366"/>
<path d="M4.65112 5H12.5581V10H4.65112V5Z" fill="#107C41"/>
<path opacity="0.1" d="M10.3102 4H4.65112V16.5H10.3102C10.7804 16.4984 11.1612 16.089 11.1628 15.5835V4.9165C11.1612 4.41101 10.7804 4.00164 10.3102 4Z" fill="black"/>
<path opacity="0.2" d="M9.84508 4.5H4.65112V17H9.84508C10.3153 16.9984 10.6961 16.589 10.6976 16.0835V5.4165C10.6961 4.91101 10.3153 4.50164 9.84508 4.5Z" fill="black"/>
<path opacity="0.2" d="M9.84508 4.5H4.65112V16H9.84508C10.3153 15.9984 10.6961 15.589 10.6976 15.0835V5.4165C10.6961 4.91101 10.3153 4.50164 9.84508 4.5Z" fill="black"/>
<path opacity="0.2" d="M9.37996 4.5H4.65112V16H9.37996C9.85018 15.9984 10.231 15.589 10.2325 15.0835V5.4165C10.231 4.91101 9.85018 4.50164 9.37996 4.5Z" fill="black"/>
<path d="M0.852678 4.5H9.38011C9.85097 4.5 10.2327 4.91033 10.2327 5.4165V14.5835C10.2327 15.0897 9.85097 15.5 9.38011 15.5H0.852678C0.381823 15.5 0.00012207 15.0897 0.00012207 14.5835V5.4165C0.00012207 4.91033 0.381823 4.5 0.852678 4.5Z" fill="url(#paint0_linear_369_1553)"/>
<path d="M2.6405 12.979L4.43399 9.99151L2.79074 7.02051H4.11259L5.00934 8.92051C5.09213 9.10101 5.14887 9.23501 5.17957 9.3235H5.1912C5.25012 9.1795 5.31213 9.03967 5.37725 8.904L6.33585 7.02151H7.54934L5.86422 9.97501L7.59213 12.979H6.30097L5.26516 10.8935C5.21636 10.8048 5.17496 10.7116 5.14144 10.615H5.12609C5.09575 10.7096 5.05549 10.8002 5.00609 10.885L3.93958 12.979H2.6405Z" fill="white"/>
<path d="M19.1474 0H12.5581V5H20V0.916498C20 0.410329 19.6183 0 19.1474 0Z" fill="#33C481"/>
<path d="M12.5581 10H20V15H12.5581V10Z" fill="#107C41"/>
</g>
<defs>
<linearGradient id="paint0_linear_369_1553" x1="1.77772" y1="3.78387" x2="9.20524" y2="15.7505" gradientUnits="userSpaceOnUse">
<stop stop-color="#18884F"/>
<stop offset="0.5" stop-color="#117E43"/>
<stop offset="1" stop-color="#0B6631"/>
</linearGradient>
<clipPath id="clip0_369_1553">
<rect width="20" height="20" fill="white"/>
</clipPath>
</defs>
</svg>
