<svg width="18" height="18" viewBox="0 0 18 18" fill="none" xmlns="http://www.w3.org/2000/svg">
<path d="M1.16354 9.23979C1.11215 9.08534 1.11215 8.91839 1.16354 8.76394C2.19643 5.65634 5.12828 3.41482 8.58365 3.41482C12.0375 3.41482 14.9679 5.6541 16.003 8.76021C16.0551 8.91436 16.0551 9.08117 16.003 9.23607C14.9709 12.3437 12.039 14.5852 8.58365 14.5852C5.12977 14.5852 2.19867 12.3459 1.16354 9.23979Z" stroke="#9CA3AF" stroke-width="1.125" stroke-linecap="round" stroke-linejoin="round"/>
<path d="M10.8179 9C10.8179 9.59251 10.5825 10.1608 10.1635 10.5797C9.74456 10.9987 9.17632 11.2341 8.58381 11.2341C7.99129 11.2341 7.42305 10.9987 7.00408 10.5797C6.58511 10.1608 6.34973 9.59251 6.34973 9C6.34973 8.40748 6.58511 7.83924 7.00408 7.42027C7.42305 7.0013 7.99129 6.76592 8.58381 6.76592C9.17632 6.76592 9.74456 7.0013 10.1635 7.42027C10.5825 7.83924 10.8179 8.40748 10.8179 9Z" stroke="#9CA3AF" stroke-width="1.125" stroke-linecap="round" stroke-linejoin="round"/>
</svg>
