<svg width="24" height="24" viewBox="0 0 24 24" fill="none" xmlns="http://www.w3.org/2000/svg">
<path d="M5.75 14.5C5.75 12.7322 5.75 11.8484 6.29918 11.2992C6.84835 10.75 7.73223 10.75 9.5 10.75H14.5C16.2678 10.75 17.1516 10.75 17.7008 11.2992C18.25 11.8484 18.25 12.7322 18.25 14.5C18.25 16.2678 18.25 17.1516 17.7008 17.7008C17.1516 18.25 16.2678 18.25 14.5 18.25H9.5C7.73223 18.25 6.84835 18.25 6.29918 17.7008C5.75 17.1516 5.75 16.2678 5.75 14.5Z" stroke="#9CA3AF"/>
<path d="M8.25 10.75V9.5C8.25 7.42893 9.92893 5.75 12 5.75C14.0711 5.75 15.75 7.42893 15.75 9.5V10.75" stroke="#9CA3AF" stroke-linecap="round"/>
</svg>
