<svg width="20" height="20" viewBox="0 0 20 20" fill="none" xmlns="http://www.w3.org/2000/svg">
<path d="M2.1875 9.60938C2.1875 10.584 2.37947 11.5491 2.75246 12.4496C3.12544 13.3501 3.67213 14.1682 4.36132 14.8574C5.0505 15.5466 5.86868 16.0933 6.76915 16.4663C7.66961 16.8393 8.63472 17.0312 9.60938 17.0312C10.584 17.0312 11.5491 16.8393 12.4496 16.4663C13.3501 16.0933 14.1682 15.5466 14.8574 14.8574C15.5466 14.1682 16.0933 13.3501 16.4663 12.4496C16.8393 11.5491 17.0313 10.584 17.0312 9.60938C17.0313 8.63472 16.8393 7.66961 16.4663 6.76915C16.0933 5.86868 15.5466 5.0505 14.8574 4.36132C14.1682 3.67213 13.3501 3.12544 12.4496 2.75246C11.5491 2.37947 10.584 2.1875 9.60938 2.1875C8.63472 2.1875 7.66961 2.37947 6.76915 2.75246C5.86868 3.12544 5.0505 3.67213 4.36132 4.36132C3.67213 5.0505 3.12544 5.86868 2.75246 6.76915C2.37947 7.66961 2.1875 8.63472 2.1875 9.60938Z" stroke="#9CA3AF" stroke-width="1.3"/>
<path d="M15.0781 15.0781L17.8125 17.8125" stroke="#9CA3AF" stroke-width="1.3" stroke-linecap="round"/>
</svg>
